<?xml version="1.0" standalone="no"?>
<!DOCTYPE svg PUBLIC "-//W3C//DTD SVG 20010904//EN"
 "http://www.w3.org/TR/2001/REC-SVG-20010904/DTD/svg10.dtd">
<svg version="1.0" xmlns="http://www.w3.org/2000/svg"
 width="288.000000pt" height="288.000000pt" viewBox="0 0 288.000000 288.000000"
 preserveAspectRatio="xMidYMid meet">
<metadata>
Created by potrace 1.14, written by Peter Selinger 2001-2017
</metadata>
<g transform="translate(0.000000,288.000000) scale(0.100000,-0.100000)"
fill="#000000" stroke="none">
<path d="M605 2280 c2 -261 4 -534 5 -606 l0 -131 60 -6 c91 -10 177 -54 254
-130 38 -37 79 -68 95 -72 38 -8 86 13 136 59 156 142 164 144 525 141 210 -2
281 0 300 10 32 16 128 109 162 155 191 259 172 622 -44 850 -37 40 -121 110
-132 110 -3 0 -23 11 -44 23 -20 13 -68 35 -107 48 l-70 24 -572 0 -573 0 5
-475z"/>
<path d="M614 1469 c-6 -10 -5 -158 1 -359 1 -47 6 -231 10 -410 9 -432 11
-461 25 -491 27 -58 18 -57 595 -61 475 -2 610 2 637 18 5 3 21 8 36 10 15 3
31 9 37 15 5 5 16 9 25 9 21 0 135 72 177 112 176 166 232 510 127 775 -56
143 -180 287 -296 346 l-54 27 -265 3 c-145 2 -284 -1 -309 -5 -59 -11 -137
-50 -180 -90 -61 -58 -124 -108 -137 -108 -7 0 -43 29 -81 65 -76 75 -154 116
-252 135 -36 6 -70 14 -77 16 -7 1 -15 -2 -19 -7z"/>
</g>
</svg>
